<mxfile host="app.diagrams.net" modified="2023-09-30T12:31:42.799Z" agent="Mozilla/5.0 (Windows NT 10.0; Win64; x64) AppleWebKit/537.36 (KHTML, like Gecko) Chrome/117.0.0.0 Safari/537.36 Edg/117.0.2045.43" etag="mixhprDSGEap7Xm7QkZy" version="22.0.0" type="device">
  <diagram id="R2lEEEUBdFMjLlhIrx00" name="Page-1">
    <mxGraphModel dx="1066" dy="605" grid="1" gridSize="10" guides="1" tooltips="1" connect="1" arrows="1" fold="1" page="1" pageScale="1" pageWidth="1169" pageHeight="827" math="0" shadow="0" extFonts="Permanent Marker^https://fonts.googleapis.com/css?family=Permanent+Marker">
      <root>
        <mxCell id="0" />
        <mxCell id="1" parent="0" />
        <mxCell id="gQfnCF4cKHEgY5oE0Zgx-17" value="category" style="whiteSpace=wrap;html=1;align=center;" parent="1" vertex="1">
          <mxGeometry y="707" width="100" height="40" as="geometry" />
        </mxCell>
        <mxCell id="gQfnCF4cKHEgY5oE0Zgx-18" value="&lt;u&gt;CID&lt;/u&gt;" style="ellipse;whiteSpace=wrap;html=1;align=center;" parent="1" vertex="1">
          <mxGeometry y="607" width="100" height="40" as="geometry" />
        </mxCell>
        <mxCell id="gQfnCF4cKHEgY5oE0Zgx-19" value="C_name" style="ellipse;whiteSpace=wrap;html=1;align=center;" parent="1" vertex="1">
          <mxGeometry x="110" y="607" width="100" height="40" as="geometry" />
        </mxCell>
        <mxCell id="gQfnCF4cKHEgY5oE0Zgx-20" value="has" style="shape=rhombus;perimeter=rhombusPerimeter;whiteSpace=wrap;html=1;align=center;" parent="1" vertex="1">
          <mxGeometry x="150" y="697" width="120" height="60" as="geometry" />
        </mxCell>
        <mxCell id="gQfnCF4cKHEgY5oE0Zgx-21" value="Product" style="whiteSpace=wrap;html=1;align=center;" parent="1" vertex="1">
          <mxGeometry x="320" y="707" width="100" height="40" as="geometry" />
        </mxCell>
        <mxCell id="gQfnCF4cKHEgY5oE0Zgx-23" value="" style="endArrow=none;html=1;rounded=0;exitX=1;exitY=0.5;exitDx=0;exitDy=0;entryX=0;entryY=0.5;entryDx=0;entryDy=0;" parent="1" source="gQfnCF4cKHEgY5oE0Zgx-17" target="gQfnCF4cKHEgY5oE0Zgx-20" edge="1">
          <mxGeometry relative="1" as="geometry">
            <mxPoint x="180" y="707" as="sourcePoint" />
            <mxPoint x="340" y="707" as="targetPoint" />
          </mxGeometry>
        </mxCell>
        <mxCell id="gQfnCF4cKHEgY5oE0Zgx-24" value="" style="endArrow=none;html=1;rounded=0;entryX=0;entryY=0.5;entryDx=0;entryDy=0;exitX=1;exitY=0.5;exitDx=0;exitDy=0;" parent="1" source="gQfnCF4cKHEgY5oE0Zgx-20" target="gQfnCF4cKHEgY5oE0Zgx-21" edge="1">
          <mxGeometry relative="1" as="geometry">
            <mxPoint x="280" y="767" as="sourcePoint" />
            <mxPoint x="160" y="737" as="targetPoint" />
          </mxGeometry>
        </mxCell>
        <mxCell id="gQfnCF4cKHEgY5oE0Zgx-27" value="" style="endArrow=none;html=1;rounded=0;entryX=0.25;entryY=0;entryDx=0;entryDy=0;exitX=0.5;exitY=1;exitDx=0;exitDy=0;" parent="1" source="gQfnCF4cKHEgY5oE0Zgx-18" target="gQfnCF4cKHEgY5oE0Zgx-17" edge="1">
          <mxGeometry relative="1" as="geometry">
            <mxPoint x="180" y="657" as="sourcePoint" />
            <mxPoint x="340" y="657" as="targetPoint" />
          </mxGeometry>
        </mxCell>
        <mxCell id="gQfnCF4cKHEgY5oE0Zgx-28" value="" style="endArrow=none;html=1;rounded=0;exitX=0.75;exitY=0;exitDx=0;exitDy=0;entryX=0.5;entryY=1;entryDx=0;entryDy=0;" parent="1" source="gQfnCF4cKHEgY5oE0Zgx-17" target="gQfnCF4cKHEgY5oE0Zgx-19" edge="1">
          <mxGeometry relative="1" as="geometry">
            <mxPoint x="120" y="747" as="sourcePoint" />
            <mxPoint x="170" y="747" as="targetPoint" />
          </mxGeometry>
        </mxCell>
        <mxCell id="gQfnCF4cKHEgY5oE0Zgx-29" value="&lt;u&gt;PID&lt;/u&gt;" style="ellipse;whiteSpace=wrap;html=1;align=center;" parent="1" vertex="1">
          <mxGeometry x="230" y="617" width="100" height="40" as="geometry" />
        </mxCell>
        <mxCell id="gQfnCF4cKHEgY5oE0Zgx-30" value="P_name" style="ellipse;whiteSpace=wrap;html=1;align=center;" parent="1" vertex="1">
          <mxGeometry x="430" y="617" width="100" height="40" as="geometry" />
        </mxCell>
        <mxCell id="gQfnCF4cKHEgY5oE0Zgx-31" value="Price" style="ellipse;whiteSpace=wrap;html=1;align=center;" parent="1" vertex="1">
          <mxGeometry x="280" y="777" width="100" height="40" as="geometry" />
        </mxCell>
        <mxCell id="gQfnCF4cKHEgY5oE0Zgx-32" value="Amount" style="ellipse;whiteSpace=wrap;html=1;align=center;" parent="1" vertex="1">
          <mxGeometry x="400" y="787" width="100" height="40" as="geometry" />
        </mxCell>
        <mxCell id="gQfnCF4cKHEgY5oE0Zgx-33" value="" style="endArrow=none;html=1;rounded=0;exitX=0.5;exitY=0;exitDx=0;exitDy=0;entryX=0.25;entryY=1;entryDx=0;entryDy=0;" parent="1" source="gQfnCF4cKHEgY5oE0Zgx-31" target="gQfnCF4cKHEgY5oE0Zgx-21" edge="1">
          <mxGeometry relative="1" as="geometry">
            <mxPoint x="110" y="737" as="sourcePoint" />
            <mxPoint x="160" y="737" as="targetPoint" />
          </mxGeometry>
        </mxCell>
        <mxCell id="gQfnCF4cKHEgY5oE0Zgx-34" value="" style="endArrow=none;html=1;rounded=0;exitX=0.25;exitY=0;exitDx=0;exitDy=0;entryX=0.5;entryY=1;entryDx=0;entryDy=0;" parent="1" source="gQfnCF4cKHEgY5oE0Zgx-21" target="gQfnCF4cKHEgY5oE0Zgx-29" edge="1">
          <mxGeometry relative="1" as="geometry">
            <mxPoint x="120" y="747" as="sourcePoint" />
            <mxPoint x="170" y="747" as="targetPoint" />
          </mxGeometry>
        </mxCell>
        <mxCell id="gQfnCF4cKHEgY5oE0Zgx-35" value="" style="endArrow=none;html=1;rounded=0;exitX=0.75;exitY=0;exitDx=0;exitDy=0;entryX=0;entryY=1;entryDx=0;entryDy=0;" parent="1" source="gQfnCF4cKHEgY5oE0Zgx-21" target="gQfnCF4cKHEgY5oE0Zgx-30" edge="1">
          <mxGeometry relative="1" as="geometry">
            <mxPoint x="130" y="757" as="sourcePoint" />
            <mxPoint x="180" y="757" as="targetPoint" />
          </mxGeometry>
        </mxCell>
        <mxCell id="gQfnCF4cKHEgY5oE0Zgx-36" value="" style="endArrow=none;html=1;rounded=0;exitX=0.75;exitY=1;exitDx=0;exitDy=0;entryX=0;entryY=0;entryDx=0;entryDy=0;" parent="1" source="gQfnCF4cKHEgY5oE0Zgx-21" target="gQfnCF4cKHEgY5oE0Zgx-32" edge="1">
          <mxGeometry relative="1" as="geometry">
            <mxPoint x="140" y="767" as="sourcePoint" />
            <mxPoint x="190" y="767" as="targetPoint" />
          </mxGeometry>
        </mxCell>
        <mxCell id="gQfnCF4cKHEgY5oE0Zgx-37" value="Order_detail" style="shape=associativeEntity;whiteSpace=wrap;html=1;align=center;" parent="1" vertex="1">
          <mxGeometry x="550" y="697" width="140" height="60" as="geometry" />
        </mxCell>
        <mxCell id="gQfnCF4cKHEgY5oE0Zgx-40" value="" style="endArrow=none;html=1;rounded=0;exitX=1;exitY=0.5;exitDx=0;exitDy=0;entryX=0;entryY=0.5;entryDx=0;entryDy=0;" parent="1" source="gQfnCF4cKHEgY5oE0Zgx-21" target="gQfnCF4cKHEgY5oE0Zgx-37" edge="1">
          <mxGeometry relative="1" as="geometry">
            <mxPoint x="450" y="717" as="sourcePoint" />
            <mxPoint x="610" y="717" as="targetPoint" />
          </mxGeometry>
        </mxCell>
        <mxCell id="gQfnCF4cKHEgY5oE0Zgx-42" value="amount" style="ellipse;whiteSpace=wrap;html=1;align=center;" parent="1" vertex="1">
          <mxGeometry x="660" y="617" width="100" height="40" as="geometry" />
        </mxCell>
        <mxCell id="gQfnCF4cKHEgY5oE0Zgx-43" value="" style="endArrow=none;html=1;rounded=0;entryX=0.75;entryY=0;entryDx=0;entryDy=0;exitX=0.5;exitY=1;exitDx=0;exitDy=0;" parent="1" source="gQfnCF4cKHEgY5oE0Zgx-42" target="gQfnCF4cKHEgY5oE0Zgx-37" edge="1">
          <mxGeometry relative="1" as="geometry">
            <mxPoint x="390" y="657" as="sourcePoint" />
            <mxPoint x="550" y="657" as="targetPoint" />
          </mxGeometry>
        </mxCell>
        <mxCell id="gQfnCF4cKHEgY5oE0Zgx-44" value="Order" style="whiteSpace=wrap;html=1;align=center;" parent="1" vertex="1">
          <mxGeometry x="800" y="707" width="100" height="40" as="geometry" />
        </mxCell>
        <mxCell id="gQfnCF4cKHEgY5oE0Zgx-45" value="" style="endArrow=none;html=1;rounded=0;entryX=0;entryY=0.5;entryDx=0;entryDy=0;exitX=1;exitY=0.5;exitDx=0;exitDy=0;" parent="1" source="gQfnCF4cKHEgY5oE0Zgx-37" target="gQfnCF4cKHEgY5oE0Zgx-44" edge="1">
          <mxGeometry relative="1" as="geometry">
            <mxPoint x="680" y="717" as="sourcePoint" />
            <mxPoint x="840" y="717" as="targetPoint" />
          </mxGeometry>
        </mxCell>
        <mxCell id="gQfnCF4cKHEgY5oE0Zgx-46" value="&lt;u&gt;OID&lt;/u&gt;" style="ellipse;whiteSpace=wrap;html=1;align=center;" parent="1" vertex="1">
          <mxGeometry x="720" y="777" width="100" height="40" as="geometry" />
        </mxCell>
        <mxCell id="gQfnCF4cKHEgY5oE0Zgx-47" value="Date" style="ellipse;whiteSpace=wrap;html=1;align=center;" parent="1" vertex="1">
          <mxGeometry x="830" y="777" width="100" height="40" as="geometry" />
        </mxCell>
        <mxCell id="gQfnCF4cKHEgY5oE0Zgx-48" value="Time" style="ellipse;whiteSpace=wrap;html=1;align=center;" parent="1" vertex="1">
          <mxGeometry x="950" y="707" width="100" height="40" as="geometry" />
        </mxCell>
        <mxCell id="gQfnCF4cKHEgY5oE0Zgx-49" value="" style="endArrow=none;html=1;rounded=0;entryX=1;entryY=0.5;entryDx=0;entryDy=0;exitX=0;exitY=0.5;exitDx=0;exitDy=0;" parent="1" source="gQfnCF4cKHEgY5oE0Zgx-48" target="gQfnCF4cKHEgY5oE0Zgx-44" edge="1">
          <mxGeometry relative="1" as="geometry">
            <mxPoint x="680" y="717" as="sourcePoint" />
            <mxPoint x="840" y="717" as="targetPoint" />
            <Array as="points" />
          </mxGeometry>
        </mxCell>
        <mxCell id="gQfnCF4cKHEgY5oE0Zgx-50" value="" style="endArrow=none;html=1;rounded=0;entryX=0.5;entryY=0;entryDx=0;entryDy=0;exitX=0;exitY=1;exitDx=0;exitDy=0;" parent="1" source="gQfnCF4cKHEgY5oE0Zgx-44" target="gQfnCF4cKHEgY5oE0Zgx-46" edge="1">
          <mxGeometry relative="1" as="geometry">
            <mxPoint x="680" y="717" as="sourcePoint" />
            <mxPoint x="840" y="717" as="targetPoint" />
          </mxGeometry>
        </mxCell>
        <mxCell id="gQfnCF4cKHEgY5oE0Zgx-51" value="" style="endArrow=none;html=1;rounded=0;exitX=0.5;exitY=0;exitDx=0;exitDy=0;entryX=0.75;entryY=1;entryDx=0;entryDy=0;" parent="1" source="gQfnCF4cKHEgY5oE0Zgx-47" target="gQfnCF4cKHEgY5oE0Zgx-44" edge="1">
          <mxGeometry relative="1" as="geometry">
            <mxPoint x="680" y="717" as="sourcePoint" />
            <mxPoint x="840" y="717" as="targetPoint" />
          </mxGeometry>
        </mxCell>
        <mxCell id="gQfnCF4cKHEgY5oE0Zgx-52" value="Member_Account" style="whiteSpace=wrap;html=1;align=center;" parent="1" vertex="1">
          <mxGeometry x="800" y="530" width="100" height="40" as="geometry" />
        </mxCell>
        <mxCell id="gQfnCF4cKHEgY5oE0Zgx-53" value="has" style="shape=rhombus;perimeter=rhombusPerimeter;whiteSpace=wrap;html=1;align=center;" parent="1" vertex="1">
          <mxGeometry x="790" y="607" width="120" height="60" as="geometry" />
        </mxCell>
        <mxCell id="gQfnCF4cKHEgY5oE0Zgx-54" value="" style="endArrow=none;html=1;rounded=0;entryX=0.5;entryY=0;entryDx=0;entryDy=0;exitX=0.5;exitY=1;exitDx=0;exitDy=0;" parent="1" source="gQfnCF4cKHEgY5oE0Zgx-52" target="gQfnCF4cKHEgY5oE0Zgx-53" edge="1">
          <mxGeometry relative="1" as="geometry">
            <mxPoint x="670" y="640" as="sourcePoint" />
            <mxPoint x="830" y="640" as="targetPoint" />
          </mxGeometry>
        </mxCell>
        <mxCell id="gQfnCF4cKHEgY5oE0Zgx-55" value="" style="endArrow=none;html=1;rounded=0;entryX=0.5;entryY=0;entryDx=0;entryDy=0;exitX=0.5;exitY=1;exitDx=0;exitDy=0;" parent="1" source="gQfnCF4cKHEgY5oE0Zgx-53" target="gQfnCF4cKHEgY5oE0Zgx-44" edge="1">
          <mxGeometry relative="1" as="geometry">
            <mxPoint x="670" y="640" as="sourcePoint" />
            <mxPoint x="830" y="640" as="targetPoint" />
          </mxGeometry>
        </mxCell>
        <mxCell id="gQfnCF4cKHEgY5oE0Zgx-56" value="&lt;u&gt;AID&lt;/u&gt;" style="ellipse;whiteSpace=wrap;html=1;align=center;" parent="1" vertex="1">
          <mxGeometry x="990" y="510" width="100" height="40" as="geometry" />
        </mxCell>
        <mxCell id="gQfnCF4cKHEgY5oE0Zgx-57" value="Username" style="ellipse;whiteSpace=wrap;html=1;align=center;" parent="1" vertex="1">
          <mxGeometry x="990" y="560" width="100" height="40" as="geometry" />
        </mxCell>
        <mxCell id="gQfnCF4cKHEgY5oE0Zgx-58" value="Password" style="ellipse;whiteSpace=wrap;html=1;align=center;" parent="1" vertex="1">
          <mxGeometry x="650" y="510" width="100" height="40" as="geometry" />
        </mxCell>
        <mxCell id="gQfnCF4cKHEgY5oE0Zgx-59" value="has" style="shape=rhombus;perimeter=rhombusPerimeter;whiteSpace=wrap;html=1;align=center;" parent="1" vertex="1">
          <mxGeometry x="790" y="413.5" width="120" height="60" as="geometry" />
        </mxCell>
        <mxCell id="gQfnCF4cKHEgY5oE0Zgx-60" value="Member_detail" style="whiteSpace=wrap;html=1;align=center;" parent="1" vertex="1">
          <mxGeometry x="800" y="320" width="100" height="40" as="geometry" />
        </mxCell>
        <mxCell id="gQfnCF4cKHEgY5oE0Zgx-61" value="&lt;u&gt;MID&lt;/u&gt;" style="ellipse;whiteSpace=wrap;html=1;align=center;" parent="1" vertex="1">
          <mxGeometry x="640" y="320" width="100" height="40" as="geometry" />
        </mxCell>
        <mxCell id="gQfnCF4cKHEgY5oE0Zgx-62" value="name" style="ellipse;whiteSpace=wrap;html=1;align=center;" parent="1" vertex="1">
          <mxGeometry x="960" y="320" width="100" height="40" as="geometry" />
        </mxCell>
        <mxCell id="gQfnCF4cKHEgY5oE0Zgx-63" value="surname" style="ellipse;whiteSpace=wrap;html=1;align=center;" parent="1" vertex="1">
          <mxGeometry x="960" y="280" width="100" height="40" as="geometry" />
        </mxCell>
        <mxCell id="gQfnCF4cKHEgY5oE0Zgx-64" value="email" style="ellipse;whiteSpace=wrap;html=1;align=center;" parent="1" vertex="1">
          <mxGeometry x="960" y="240" width="100" height="40" as="geometry" />
        </mxCell>
        <mxCell id="gQfnCF4cKHEgY5oE0Zgx-65" value="phone" style="ellipse;whiteSpace=wrap;html=1;align=center;" parent="1" vertex="1">
          <mxGeometry x="640" y="280" width="100" height="40" as="geometry" />
        </mxCell>
        <mxCell id="gQfnCF4cKHEgY5oE0Zgx-66" value="Address" style="ellipse;whiteSpace=wrap;html=1;align=center;" parent="1" vertex="1">
          <mxGeometry x="640" y="240" width="100" height="40" as="geometry" />
        </mxCell>
        <mxCell id="gQfnCF4cKHEgY5oE0Zgx-67" value="" style="endArrow=none;html=1;rounded=0;entryX=0;entryY=0.5;entryDx=0;entryDy=0;exitX=1;exitY=0.5;exitDx=0;exitDy=0;" parent="1" source="gQfnCF4cKHEgY5oE0Zgx-58" target="gQfnCF4cKHEgY5oE0Zgx-52" edge="1">
          <mxGeometry relative="1" as="geometry">
            <mxPoint x="670" y="540" as="sourcePoint" />
            <mxPoint x="830" y="540" as="targetPoint" />
          </mxGeometry>
        </mxCell>
        <mxCell id="gQfnCF4cKHEgY5oE0Zgx-68" value="" style="endArrow=none;html=1;rounded=0;entryX=0;entryY=0.5;entryDx=0;entryDy=0;exitX=1;exitY=0.5;exitDx=0;exitDy=0;" parent="1" source="gQfnCF4cKHEgY5oE0Zgx-52" target="gQfnCF4cKHEgY5oE0Zgx-56" edge="1">
          <mxGeometry relative="1" as="geometry">
            <mxPoint x="670" y="540" as="sourcePoint" />
            <mxPoint x="830" y="540" as="targetPoint" />
          </mxGeometry>
        </mxCell>
        <mxCell id="gQfnCF4cKHEgY5oE0Zgx-69" value="" style="endArrow=none;html=1;rounded=0;entryX=0;entryY=0.5;entryDx=0;entryDy=0;exitX=1;exitY=1;exitDx=0;exitDy=0;" parent="1" source="gQfnCF4cKHEgY5oE0Zgx-52" target="gQfnCF4cKHEgY5oE0Zgx-57" edge="1">
          <mxGeometry relative="1" as="geometry">
            <mxPoint x="670" y="540" as="sourcePoint" />
            <mxPoint x="830" y="540" as="targetPoint" />
          </mxGeometry>
        </mxCell>
        <mxCell id="gQfnCF4cKHEgY5oE0Zgx-70" value="" style="endArrow=none;html=1;rounded=0;entryX=0.5;entryY=1;entryDx=0;entryDy=0;exitX=0.5;exitY=0;exitDx=0;exitDy=0;" parent="1" source="gQfnCF4cKHEgY5oE0Zgx-52" target="gQfnCF4cKHEgY5oE0Zgx-59" edge="1">
          <mxGeometry relative="1" as="geometry">
            <mxPoint x="670" y="540" as="sourcePoint" />
            <mxPoint x="830" y="540" as="targetPoint" />
          </mxGeometry>
        </mxCell>
        <mxCell id="gQfnCF4cKHEgY5oE0Zgx-71" value="" style="endArrow=none;html=1;rounded=0;entryX=0.5;entryY=0;entryDx=0;entryDy=0;exitX=0.5;exitY=1;exitDx=0;exitDy=0;" parent="1" source="gQfnCF4cKHEgY5oE0Zgx-60" target="gQfnCF4cKHEgY5oE0Zgx-59" edge="1">
          <mxGeometry relative="1" as="geometry">
            <mxPoint x="670" y="540" as="sourcePoint" />
            <mxPoint x="830" y="540" as="targetPoint" />
          </mxGeometry>
        </mxCell>
        <mxCell id="gQfnCF4cKHEgY5oE0Zgx-72" value="" style="endArrow=none;html=1;rounded=0;entryX=1;entryY=0.5;entryDx=0;entryDy=0;exitX=0;exitY=0.5;exitDx=0;exitDy=0;" parent="1" source="gQfnCF4cKHEgY5oE0Zgx-62" target="gQfnCF4cKHEgY5oE0Zgx-60" edge="1">
          <mxGeometry relative="1" as="geometry">
            <mxPoint x="860" y="370" as="sourcePoint" />
            <mxPoint x="860" y="424" as="targetPoint" />
          </mxGeometry>
        </mxCell>
        <mxCell id="gQfnCF4cKHEgY5oE0Zgx-73" value="" style="endArrow=none;html=1;rounded=0;entryX=1;entryY=0;entryDx=0;entryDy=0;exitX=0;exitY=0.5;exitDx=0;exitDy=0;" parent="1" source="gQfnCF4cKHEgY5oE0Zgx-63" target="gQfnCF4cKHEgY5oE0Zgx-60" edge="1">
          <mxGeometry relative="1" as="geometry">
            <mxPoint x="870" y="380" as="sourcePoint" />
            <mxPoint x="870" y="434" as="targetPoint" />
          </mxGeometry>
        </mxCell>
        <mxCell id="gQfnCF4cKHEgY5oE0Zgx-74" value="" style="endArrow=none;html=1;rounded=0;entryX=0.75;entryY=0;entryDx=0;entryDy=0;exitX=0;exitY=0.5;exitDx=0;exitDy=0;" parent="1" source="gQfnCF4cKHEgY5oE0Zgx-64" target="gQfnCF4cKHEgY5oE0Zgx-60" edge="1">
          <mxGeometry relative="1" as="geometry">
            <mxPoint x="970" y="310" as="sourcePoint" />
            <mxPoint x="910" y="330" as="targetPoint" />
          </mxGeometry>
        </mxCell>
        <mxCell id="gQfnCF4cKHEgY5oE0Zgx-75" value="" style="endArrow=none;html=1;rounded=0;entryX=0.25;entryY=0;entryDx=0;entryDy=0;exitX=1;exitY=0.5;exitDx=0;exitDy=0;" parent="1" source="gQfnCF4cKHEgY5oE0Zgx-66" target="gQfnCF4cKHEgY5oE0Zgx-60" edge="1">
          <mxGeometry relative="1" as="geometry">
            <mxPoint x="980" y="320" as="sourcePoint" />
            <mxPoint x="920" y="340" as="targetPoint" />
          </mxGeometry>
        </mxCell>
        <mxCell id="gQfnCF4cKHEgY5oE0Zgx-76" value="" style="endArrow=none;html=1;rounded=0;entryX=0;entryY=0;entryDx=0;entryDy=0;exitX=1;exitY=0.5;exitDx=0;exitDy=0;" parent="1" source="gQfnCF4cKHEgY5oE0Zgx-65" target="gQfnCF4cKHEgY5oE0Zgx-60" edge="1">
          <mxGeometry relative="1" as="geometry">
            <mxPoint x="750" y="270" as="sourcePoint" />
            <mxPoint x="835" y="330" as="targetPoint" />
          </mxGeometry>
        </mxCell>
        <mxCell id="gQfnCF4cKHEgY5oE0Zgx-77" value="" style="endArrow=none;html=1;rounded=0;entryX=0;entryY=0.5;entryDx=0;entryDy=0;exitX=1;exitY=0.5;exitDx=0;exitDy=0;" parent="1" source="gQfnCF4cKHEgY5oE0Zgx-61" target="gQfnCF4cKHEgY5oE0Zgx-60" edge="1">
          <mxGeometry relative="1" as="geometry">
            <mxPoint x="750" y="310" as="sourcePoint" />
            <mxPoint x="810" y="330" as="targetPoint" />
          </mxGeometry>
        </mxCell>
        <mxCell id="gQfnCF4cKHEgY5oE0Zgx-78" value="Relationship" style="shape=rhombus;perimeter=rhombusPerimeter;whiteSpace=wrap;html=1;align=center;" parent="1" vertex="1">
          <mxGeometry x="310" y="510" width="120" height="60" as="geometry" />
        </mxCell>
        <mxCell id="gQfnCF4cKHEgY5oE0Zgx-79" value="" style="endArrow=none;html=1;rounded=0;entryX=0.5;entryY=0;entryDx=0;entryDy=0;exitX=0.5;exitY=1;exitDx=0;exitDy=0;" parent="1" source="gQfnCF4cKHEgY5oE0Zgx-78" target="gQfnCF4cKHEgY5oE0Zgx-21" edge="1">
          <mxGeometry relative="1" as="geometry">
            <mxPoint x="420" y="560" as="sourcePoint" />
            <mxPoint x="580" y="560" as="targetPoint" />
          </mxGeometry>
        </mxCell>
        <mxCell id="gQfnCF4cKHEgY5oE0Zgx-80" value="images" style="whiteSpace=wrap;html=1;align=center;" parent="1" vertex="1">
          <mxGeometry x="320" y="400" width="100" height="40" as="geometry" />
        </mxCell>
        <mxCell id="gQfnCF4cKHEgY5oE0Zgx-81" value="" style="endArrow=none;html=1;rounded=0;entryX=0.5;entryY=1;entryDx=0;entryDy=0;exitX=0.5;exitY=0;exitDx=0;exitDy=0;" parent="1" source="gQfnCF4cKHEgY5oE0Zgx-78" target="gQfnCF4cKHEgY5oE0Zgx-80" edge="1">
          <mxGeometry relative="1" as="geometry">
            <mxPoint x="420" y="560" as="sourcePoint" />
            <mxPoint x="580" y="560" as="targetPoint" />
          </mxGeometry>
        </mxCell>
        <mxCell id="gQfnCF4cKHEgY5oE0Zgx-82" value="&lt;u&gt;IMG_ID&lt;/u&gt;" style="ellipse;whiteSpace=wrap;html=1;align=center;" parent="1" vertex="1">
          <mxGeometry x="150" y="370" width="100" height="40" as="geometry" />
        </mxCell>
        <mxCell id="gQfnCF4cKHEgY5oE0Zgx-83" value="file_name" style="ellipse;whiteSpace=wrap;html=1;align=center;" parent="1" vertex="1">
          <mxGeometry x="190" y="310" width="100" height="40" as="geometry" />
        </mxCell>
        <mxCell id="gQfnCF4cKHEgY5oE0Zgx-85" value="uploaded_on" style="ellipse;whiteSpace=wrap;html=1;align=center;" parent="1" vertex="1">
          <mxGeometry x="300" y="300" width="100" height="40" as="geometry" />
        </mxCell>
        <mxCell id="gQfnCF4cKHEgY5oE0Zgx-86" value="status" style="ellipse;whiteSpace=wrap;html=1;align=center;" parent="1" vertex="1">
          <mxGeometry x="420" y="300" width="100" height="40" as="geometry" />
        </mxCell>
        <mxCell id="gQfnCF4cKHEgY5oE0Zgx-87" value="" style="endArrow=none;html=1;rounded=0;entryX=1;entryY=1;entryDx=0;entryDy=0;exitX=0;exitY=0.75;exitDx=0;exitDy=0;" parent="1" source="gQfnCF4cKHEgY5oE0Zgx-80" target="gQfnCF4cKHEgY5oE0Zgx-82" edge="1">
          <mxGeometry relative="1" as="geometry">
            <mxPoint x="390" y="460" as="sourcePoint" />
            <mxPoint x="550" y="460" as="targetPoint" />
          </mxGeometry>
        </mxCell>
        <mxCell id="gQfnCF4cKHEgY5oE0Zgx-88" value="" style="endArrow=none;html=1;rounded=0;entryX=1;entryY=1;entryDx=0;entryDy=0;exitX=0;exitY=0;exitDx=0;exitDy=0;" parent="1" source="gQfnCF4cKHEgY5oE0Zgx-80" target="gQfnCF4cKHEgY5oE0Zgx-83" edge="1">
          <mxGeometry relative="1" as="geometry">
            <mxPoint x="330" y="440" as="sourcePoint" />
            <mxPoint x="245" y="414" as="targetPoint" />
          </mxGeometry>
        </mxCell>
        <mxCell id="gQfnCF4cKHEgY5oE0Zgx-89" value="" style="endArrow=none;html=1;rounded=0;entryX=1;entryY=1;entryDx=0;entryDy=0;exitX=0.5;exitY=0;exitDx=0;exitDy=0;" parent="1" source="gQfnCF4cKHEgY5oE0Zgx-80" target="gQfnCF4cKHEgY5oE0Zgx-85" edge="1">
          <mxGeometry relative="1" as="geometry">
            <mxPoint x="392.5" y="396" as="sourcePoint" />
            <mxPoint x="347.5" y="340" as="targetPoint" />
          </mxGeometry>
        </mxCell>
        <mxCell id="gQfnCF4cKHEgY5oE0Zgx-90" value="" style="endArrow=none;html=1;rounded=0;entryX=0.269;entryY=0.979;entryDx=0;entryDy=0;exitX=1;exitY=0;exitDx=0;exitDy=0;entryPerimeter=0;" parent="1" source="gQfnCF4cKHEgY5oE0Zgx-80" target="gQfnCF4cKHEgY5oE0Zgx-86" edge="1">
          <mxGeometry relative="1" as="geometry">
            <mxPoint x="380" y="410" as="sourcePoint" />
            <mxPoint x="395" y="344" as="targetPoint" />
          </mxGeometry>
        </mxCell>
        <mxCell id="gQfnCF4cKHEgY5oE0Zgx-91" value="M" style="text;html=1;align=center;verticalAlign=middle;resizable=0;points=[];autosize=1;strokeColor=none;fillColor=none;" parent="1" vertex="1">
          <mxGeometry x="415" y="695" width="30" height="30" as="geometry" />
        </mxCell>
        <mxCell id="gQfnCF4cKHEgY5oE0Zgx-92" value="M" style="text;html=1;align=center;verticalAlign=middle;resizable=0;points=[];autosize=1;strokeColor=none;fillColor=none;" parent="1" vertex="1">
          <mxGeometry x="765" y="695" width="30" height="30" as="geometry" />
        </mxCell>
        <mxCell id="gQfnCF4cKHEgY5oE0Zgx-93" value="1" style="text;html=1;align=center;verticalAlign=middle;resizable=0;points=[];autosize=1;strokeColor=none;fillColor=none;" parent="1" vertex="1">
          <mxGeometry x="100" y="697" width="30" height="30" as="geometry" />
        </mxCell>
        <mxCell id="gQfnCF4cKHEgY5oE0Zgx-94" value="M" style="text;html=1;align=center;verticalAlign=middle;resizable=0;points=[];autosize=1;strokeColor=none;fillColor=none;" parent="1" vertex="1">
          <mxGeometry x="290" y="697" width="30" height="30" as="geometry" />
        </mxCell>
        <mxCell id="gQfnCF4cKHEgY5oE0Zgx-96" value="1" style="text;html=1;align=center;verticalAlign=middle;resizable=0;points=[];autosize=1;strokeColor=none;fillColor=none;" parent="1" vertex="1">
          <mxGeometry x="375" y="655" width="30" height="30" as="geometry" />
        </mxCell>
        <mxCell id="gQfnCF4cKHEgY5oE0Zgx-97" value="1" style="text;html=1;align=center;verticalAlign=middle;resizable=0;points=[];autosize=1;strokeColor=none;fillColor=none;" parent="1" vertex="1">
          <mxGeometry x="375" y="445" width="30" height="30" as="geometry" />
        </mxCell>
        <mxCell id="gQfnCF4cKHEgY5oE0Zgx-98" value="M" style="text;html=1;align=center;verticalAlign=middle;resizable=0;points=[];autosize=1;strokeColor=none;fillColor=none;" parent="1" vertex="1">
          <mxGeometry x="865" y="675" width="30" height="30" as="geometry" />
        </mxCell>
        <mxCell id="gQfnCF4cKHEgY5oE0Zgx-99" value="1" style="text;html=1;align=center;verticalAlign=middle;resizable=0;points=[];autosize=1;strokeColor=none;fillColor=none;" parent="1" vertex="1">
          <mxGeometry x="865" y="575" width="30" height="30" as="geometry" />
        </mxCell>
        <mxCell id="gQfnCF4cKHEgY5oE0Zgx-100" value="1" style="text;html=1;align=center;verticalAlign=middle;resizable=0;points=[];autosize=1;strokeColor=none;fillColor=none;" parent="1" vertex="1">
          <mxGeometry x="865" y="485" width="30" height="30" as="geometry" />
        </mxCell>
        <mxCell id="gQfnCF4cKHEgY5oE0Zgx-101" value="1" style="text;html=1;align=center;verticalAlign=middle;resizable=0;points=[];autosize=1;strokeColor=none;fillColor=none;" parent="1" vertex="1">
          <mxGeometry x="865" y="355" width="30" height="30" as="geometry" />
        </mxCell>
        <mxCell id="ZMkcIo-pciMY-39vvq6C-1" value="payment_status" style="ellipse;whiteSpace=wrap;html=1;align=center;" vertex="1" parent="1">
          <mxGeometry x="540" y="607" width="100" height="40" as="geometry" />
        </mxCell>
        <mxCell id="ZMkcIo-pciMY-39vvq6C-2" value="" style="endArrow=none;html=1;rounded=0;entryX=0.25;entryY=0;entryDx=0;entryDy=0;exitX=0.5;exitY=1;exitDx=0;exitDy=0;" edge="1" parent="1" source="ZMkcIo-pciMY-39vvq6C-1" target="gQfnCF4cKHEgY5oE0Zgx-37">
          <mxGeometry relative="1" as="geometry">
            <mxPoint x="720" y="667" as="sourcePoint" />
            <mxPoint x="665" y="707" as="targetPoint" />
          </mxGeometry>
        </mxCell>
      </root>
    </mxGraphModel>
  </diagram>
</mxfile>
